# xmcd
#
# Track frame offsets: 
#        150
#        21107
#        35980
#        56883
#        78571
#        105418
#        125256
#        142983
#        162531
#        181210
#        200103
#        219938
#        239378
#        265980
#
# Disc length: 3790 seconds
#
# Revision: 27
# Processed by: cddbd v1.5.2PL0 Copyright (c) Steve Scherf et al.
# Submitted via: ExactAudioCopy v0.95b4
#
DISCID=cc0ecc0e
DTITLE=B'z - B'z The Best -Pleasure-
DYEAR=1998
DGENRE=JPop
TTITLE0=LOVE PHANTOM
TTITLE1=love me, I love you
TTITLE2=Easy Come, Easy Go!
TTITLE3=ZERO
TTITLE4=ALONE
TTITLE5=Õ£ðëªÎÒ³ãê
TTITLE6=äñªÎªÞªÞªËªïª¬ªÞªÞªË ÜÒªÏÏÖªÀª±ªòß¿ªÄª±ªÊª¤
TTITLE7=LADY NAVIGATION
TTITLE8=÷¼åÕªÎKomachi Angel
TTITLE9=BE THERE
TTITLE10=Don't Leave Me
TTITLE11=Bad Communication E.Style
TTITLE12=Calling
TTITLE13=ªµªÞªèª¨ªëóïª¤÷¥ü¯
EXTD=YEAR: 1998
EXTT0=
EXTT1=
EXTT2=
EXTT3=
EXTT4=
EXTT5=
EXTT6=
EXTT7=
EXTT8=
EXTT9=
EXTT10=
EXTT11=
EXTT12=
EXTT13=
PLAYORDER=
